<svg version="1.1" id="Layer_1" xmlns="http://www.w3.org/2000/svg" xmlns:xlink="http://www.w3.org/1999/xlink" x="0px" y="0px"
	 width="100%" viewBox="-41 -41 594 594" enable-background="new 0 0 512 512" xml:space="preserve">
M278.070801,193.024323 
	C270.379883,193.071793 262.688965,193.119263 254.070557,193.024521 
	C245.046249,193.071915 236.021927,193.119308 226.070541,193.024643 
	C222.574600,193.016647 219.044235,193.323410 215.588715,192.945633 
	C201.395920,191.393967 192.199692,201.455719 192.686584,215.518204 
	C193.001862,224.624084 198.781723,233.620087 208.589645,235.622787 
	C214.173889,236.763062 220.181061,235.832092 226.925415,235.979309 
	C236.282974,235.930649 245.640518,235.881989 255.925720,235.978256 
	C263.616608,235.930115 271.307495,235.881958 279.926086,235.978226 
	C287.617523,235.930176 295.308960,235.882141 303.927826,235.978226 
	C312.285431,235.930084 320.643066,235.881958 329.928162,235.977463 
	C338.951874,235.929474 347.975616,235.881485 357.926941,235.977142 
	C368.284424,235.929245 378.641876,235.881363 389.926971,235.976959 
	C395.905792,235.984589 401.905518,236.295151 407.855408,235.883926 
	C411.313477,235.644943 415.102600,234.949860 418.027283,233.237778 
	C426.281067,228.406082 430.168732,217.834793 427.806061,208.544998 
	C425.704956,200.283630 418.092896,193.146713 410.910217,193.037491 
	C403.608978,192.926453 396.303223,193.111343 388.071625,193.025238 
	C377.714203,193.072388 367.356750,193.119522 356.071533,193.025024 
	C347.047882,193.072144 338.024261,193.119263 328.072632,193.024353 
	C319.715240,193.071625 311.357819,193.118896 302.072388,193.024414 
	C294.381042,193.071732 286.689697,193.119049 278.070801,193.024323 
M392.068756,107.025543 
	C384.378418,107.072876 376.688080,107.120216 368.070312,107.025192 
	C358.379578,107.072411 348.688812,107.119621 338.070496,107.025345 
	C327.047089,107.072449 316.023651,107.119553 304.072235,107.024849 
	C294.048676,107.071815 284.025116,107.118782 273.073334,107.023689 
	C264.382385,107.071030 255.691422,107.118378 246.072342,107.024078 
	C237.381332,107.071281 228.690338,107.118484 219.071671,107.023361 
	C210.380661,107.070961 201.689636,107.118553 192.070999,107.024231 
	C182.713379,107.071793 173.355759,107.119354 163.070618,107.024429 
	C154.046356,107.072006 145.022095,107.119583 135.088455,107.024269 
	C131.355988,107.335495 127.628273,107.731583 123.890083,107.940514 
	C115.758606,108.394997 110.710808,113.706886 108.475044,120.355179 
	C105.691895,128.631195 105.935814,137.287674 112.842262,144.416000 
	C119.387444,151.171448 127.561256,151.298523 136.925186,150.979874 
	C145.949463,150.930939 154.973724,150.882004 164.925400,150.979828 
	C174.283142,150.931168 183.640900,150.882523 193.925934,150.980118 
	C202.617065,150.931519 211.308212,150.882919 220.926712,150.979416 
	C229.617935,150.931046 238.309174,150.882675 247.927689,150.979355 
	C256.618988,150.930984 265.310272,150.882629 274.928864,150.978531 
	C284.952667,150.930145 294.976440,150.881760 305.927673,150.977722 
	C316.951141,150.929535 327.974609,150.881348 339.925812,150.977325 
	C349.616455,150.929031 359.307129,150.880737 369.925751,150.975861 
	C377.615845,150.928207 385.305939,150.880554 393.924286,150.976440 
	C401.282867,150.928711 408.641449,150.880981 416.927704,150.976074 
	C424.951782,150.928558 432.975830,150.881042 441.913727,150.975922 
	C444.575104,150.983704 447.264435,151.244644 449.892883,150.954315 
	C459.918854,149.846878 466.664307,146.264374 469.775940,136.490341 
	C473.586060,124.522163 467.726227,108.830887 453.285034,107.726456 
	C449.199615,107.414009 445.095490,107.346382 440.072113,107.024643 
	C432.048096,107.072014 424.024109,107.119385 415.072296,107.024742 
	C407.713531,107.072189 400.354797,107.119644 392.068756,107.025543 
M357.070709,22.025024 
	C349.046631,22.072296 341.022583,22.119568 332.070923,22.024780 
	C323.380310,22.072008 314.689697,22.119236 305.071320,22.024660 
	C296.380615,22.071833 287.689941,22.119005 278.071533,22.024109 
	C269.713959,22.071459 261.356354,22.118809 252.071182,22.024012 
	C243.046906,22.071329 234.022644,22.118649 224.070786,22.024050 
	C214.379608,22.071566 204.688446,22.119080 194.069824,22.024662 
	C183.379501,22.071840 172.689194,22.119019 161.071198,22.023706 
	C150.714249,22.070904 140.357285,22.118101 129.072433,22.022541 
	C119.714867,22.070162 110.357300,22.117781 100.071892,22.022863 
	C92.047050,22.070826 84.022202,22.118790 75.071869,22.023148 
	C71.092972,22.015478 67.106255,21.845190 63.136902,22.036037 
	C56.170113,22.371002 50.209583,24.824341 46.435150,31.079498 
	C39.457294,42.643509 42.956974,61.200756 58.206230,64.470764 
	C63.900646,65.691864 70.053490,64.775169 76.924690,64.981064 
	C85.282990,64.932137 93.641281,64.883209 102.926651,64.981880 
	C111.951363,64.932800 120.976082,64.883720 130.927856,64.981201 
	C141.284851,64.931999 151.641861,64.882805 162.926163,64.980164 
	C173.616577,64.931213 184.306976,64.882263 195.924942,64.979675 
	C205.616089,64.931030 215.307220,64.882378 225.925858,64.979279 
	C234.950119,64.930740 243.974396,64.882210 253.926208,64.978561 
	C262.283875,64.930252 270.641541,64.881943 279.926758,64.978134 
	C288.617554,64.929886 297.308319,64.881645 306.926666,64.977737 
	C315.617279,64.929543 324.307892,64.881340 333.926270,64.976990 
	C341.950287,64.929062 349.974304,64.881134 358.915924,64.976807 
	C360.743042,64.984764 362.581970,64.860878 364.395325,65.022873 
	C373.622284,65.847206 380.921204,60.683910 383.611786,53.668827 
	C386.371552,46.473324 386.102844,34.106232 379.522980,27.851017 
	C373.201080,21.841080 365.825897,21.563005 357.070709,22.025024 
M136.925171,406.979858 
	C144.949783,406.931122 152.974380,406.882385 161.926270,406.980164 
	C169.950790,406.931427 177.975311,406.882721 186.927155,406.979584 
	C196.950989,406.930939 206.974808,406.882294 217.925995,406.979584 
	C223.903595,406.986298 229.910919,407.356598 235.848297,406.871277 
	C239.772018,406.550598 243.923691,405.645508 247.398880,403.874725 
	C256.067047,399.457947 257.354279,391.370026 257.057831,382.538300 
	C256.747223,373.282776 251.226013,365.421875 242.106476,364.181396 
	C233.844009,363.057495 225.375946,363.445160 216.070862,363.024658 
	C206.047165,363.071777 196.023453,363.118896 185.072037,363.023224 
	C177.047699,363.070953 169.023346,363.118683 160.071350,363.023895 
	C152.046844,363.071625 144.022324,363.119385 135.088440,363.024261 
	C131.355972,363.335480 127.628258,363.731537 123.890076,363.940491 
	C115.758629,364.395020 110.710770,369.706848 108.475044,376.355194 
	C105.691940,384.631226 105.935783,393.287689 112.842270,400.416016 
	C119.387451,407.171448 127.561241,407.298615 136.925171,406.979858 
M231.069077,278.025574 
	C223.378998,278.072723 215.688904,278.119843 207.071396,278.023407 
	C198.380447,278.070923 189.689484,278.118408 180.075134,278.024048 
	C174.047485,278.516632 167.578812,277.781372 162.083282,279.755371 
	C150.354965,283.968170 148.320786,295.093353 150.538177,305.907013 
	C152.473053,315.342804 161.642670,322.236389 170.535324,321.064484 
	C173.973663,320.611359 177.508316,320.889191 181.926270,320.980438 
	C190.617111,320.931274 199.307938,320.882141 208.926376,320.977783 
	C216.616287,320.929230 224.306183,320.880676 232.923813,320.977997 
	C241.281769,320.929535 249.639725,320.881073 258.925385,320.977783 
	C268.615173,320.929138 278.304932,320.880493 288.922485,320.976685 
	C293.741852,320.983917 298.570435,321.181519 303.378235,320.949310 
	C309.155121,320.670319 313.697174,318.197998 317.354767,313.411804 
	C320.988647,308.656586 320.586548,303.421265 321.126404,298.051422 
	C321.921722,290.140137 314.471985,279.982697 307.154114,279.073029 
	C301.156006,278.327393 295.051575,278.437347 288.067230,278.025757 
	C278.044037,278.072937 268.020844,278.120087 257.070251,278.024994 
	C248.712204,278.072601 240.354156,278.120239 231.069077,278.025574 
M177.926498,491.977631 
	C186.282318,491.928894 194.638138,491.880188 203.920181,491.978180 
	C207.409515,491.985321 210.898865,491.999695 214.388199,491.998322 
	C226.117874,491.993744 232.945724,487.137634 235.480469,475.891785 
	C237.590347,466.530853 235.420837,455.848816 224.409225,450.763519 
	C217.348785,447.502960 210.128448,449.635712 202.067337,449.026184 
	C193.711243,449.073364 185.355148,449.120544 176.081924,449.023743 
	C174.251816,449.015991 172.395615,449.205353 170.595963,448.967316 
	C161.339340,447.743195 153.558975,454.700867 151.422241,461.270844 
	C148.576721,470.020203 148.680344,478.707031 155.538284,486.039215 
	C161.488297,492.400665 169.191696,492.322174 177.926498,491.977631 
z"/>
<path fill="#2692FF" opacity="1.000000" stroke="none" 
	d="
M216.998535,363.166351 
	C225.375946,363.445160 233.844009,363.057495 242.106476,364.181396 
	C251.226013,365.421875 256.747223,373.282776 257.057831,382.538300 
	C257.354279,391.370026 256.067047,399.457947 247.398880,403.874725 
	C243.923691,405.645508 239.772018,406.550598 235.848297,406.871277 
	C229.910919,407.356598 223.903595,406.986298 217.551880,406.508972 
	C217.451859,397.321503 217.908066,388.605164 217.934326,379.887543 
	C217.951111,374.314789 217.332367,368.740143 216.998535,363.166351 
z"/>
<path fill="#377EFF" opacity="1.000000" stroke="none" 
	d="
M338.998077,150.833160 
	C327.974609,150.881348 316.951141,150.929535 305.431274,150.496216 
	C304.956665,135.732040 304.978455,121.449341 305.000244,107.166649 
	C316.023651,107.119553 327.047089,107.072449 338.534729,107.554100 
	C338.998688,122.332954 338.998383,136.583054 338.998077,150.833160 
z"/>
<path fill="#476AFF" opacity="1.000000" stroke="none" 
	d="
M388.999451,193.166641 
	C396.303223,193.111343 403.608978,192.926453 410.910217,193.037491 
	C418.092896,193.146713 425.704956,200.283630 427.806061,208.544998 
	C430.168732,217.834793 426.281067,228.406082 418.027283,233.237778 
	C415.102600,234.949860 411.313477,235.644943 407.855408,235.883926 
	C401.905518,236.295151 395.905792,235.984589 389.463440,235.447205 
	C388.999725,221.000519 388.999573,207.083572 388.999451,193.166641 
z"/>
<path fill="#1C9FFF" opacity="1.000000" stroke="none" 
	d="
M161.998871,22.166195 
	C172.689194,22.119019 183.379501,22.071840 194.534164,22.553673 
	C194.998123,36.999561 194.997757,50.916435 194.997391,64.833313 
	C184.306976,64.882263 173.616577,64.931213 162.462814,64.448822 
	C161.999268,50.000381 161.999069,36.083290 161.998871,22.166195 
z"/>
<path fill="#16A6FF" opacity="1.000000" stroke="none" 
	d="
M161.535034,22.094952 
	C161.999069,36.083290 161.999268,50.000381 161.999161,64.375534 
	C151.641861,64.882805 141.284851,64.931999 130.464371,64.449783 
	C130.000702,50.000683 130.000519,36.082989 130.000336,22.165298 
	C140.357285,22.118101 150.714249,22.070904 161.535034,22.094952 
z"/>
<path fill="#4072FF" opacity="1.000000" stroke="none" 
	d="
M388.535522,193.095947 
	C388.999573,207.083572 388.999725,221.000519 388.999634,235.375458 
	C378.641876,235.881363 368.284424,235.929245 357.463379,235.447296 
	C356.999664,221.000519 356.999481,207.083588 356.999329,193.166672 
	C367.356750,193.119522 377.714203,193.072388 388.535522,193.095947 
z"/>
<path fill="#209AFF" opacity="1.000000" stroke="none" 
	d="
M216.534698,363.095520 
	C217.332367,368.740143 217.951111,374.314789 217.934326,379.887543 
	C217.908066,388.605164 217.451859,397.321503 217.088211,406.436035 
	C206.974808,406.882294 196.950989,406.930939 186.552856,406.509094 
	C186.452560,397.321625 186.908646,388.605225 186.934982,379.887512 
	C186.951782,374.314667 186.333374,368.739899 185.999756,363.166016 
	C196.023453,363.118896 206.047165,363.071777 216.534698,363.095520 
z"/>
<path fill="#3184FF" opacity="1.000000" stroke="none" 
	d="
M304.536255,107.095749 
	C304.978455,121.449341 304.956665,135.732040 304.967560,150.424042 
	C294.976440,150.881760 284.952667,150.930145 274.465057,150.448303 
	C274.001343,135.667313 274.001465,121.416527 274.001556,107.165749 
	C284.025116,107.118782 294.048676,107.071815 304.536255,107.095749 
z"/>
<path fill="#3D76FF" opacity="1.000000" stroke="none" 
	d="
M339.461945,150.905243 
	C338.998383,136.583054 338.998688,122.332954 338.998535,107.624847 
	C348.688812,107.119621 358.379578,107.072411 368.534454,107.554329 
	C368.998322,122.333130 368.998047,136.582794 368.997772,150.832458 
	C359.307129,150.880737 349.616455,150.929031 339.461945,150.905243 
z"/>
<path fill="#2297FF" opacity="1.000000" stroke="none" 
	d="
M225.997787,235.833817 
	C220.181061,235.832092 214.173889,236.763062 208.589645,235.622787 
	C198.781723,233.620087 193.001862,224.624084 192.686584,215.518204 
	C192.199692,201.455719 201.395920,191.393967 215.588715,192.945633 
	C219.044235,193.323410 222.574600,193.016647 226.534607,193.553711 
	C226.665054,207.999786 226.331421,221.916794 225.997787,235.833817 
z"/>
<path fill="#2C8AFF" opacity="1.000000" stroke="none" 
	d="
M257.997650,278.167267 
	C268.020844,278.120087 278.044037,278.072937 288.442444,278.494507 
	C288.544678,281.262726 288.051880,283.560669 288.035736,285.861969 
	C287.953979,297.518097 287.996063,309.175140 287.994720,320.831848 
	C278.304932,320.880493 268.615173,320.929138 258.461945,320.447235 
	C257.998199,306.000214 257.997925,292.083740 257.997650,278.167267 
z"/>
<path fill="#2297FF" opacity="1.000000" stroke="none" 
	d="
M195.461166,64.906494 
	C194.997757,50.916435 194.998123,36.999561 194.997894,22.624640 
	C204.688446,22.119080 214.379608,22.071566 224.535080,22.553089 
	C224.999039,36.999329 224.998703,50.916531 224.998367,64.833733 
	C215.307220,64.882378 205.616089,64.931030 195.461166,64.906494 
z"/>
<path fill="#1C9FFF" opacity="1.000000" stroke="none" 
	d="
M163.998138,107.166916 
	C173.355759,107.119354 182.713379,107.071793 192.502625,107.504578 
	C192.955719,122.267899 192.977188,136.550873 192.998642,150.833862 
	C183.640900,150.882523 174.283142,150.931168 164.372864,150.508759 
	C163.546906,141.321167 163.091858,132.605194 163.065506,123.887909 
	C163.048645,118.315239 163.665436,112.740654 163.998138,107.166916 
z"/>
<path fill="#3184FF" opacity="1.000000" stroke="none" 
	d="
M288.458618,320.904266 
	C287.996063,309.175140 287.953979,297.518097 288.035736,285.861969 
	C288.051880,283.560669 288.544678,281.262726 288.905945,278.565643 
	C295.051575,278.437347 301.156006,278.327393 307.154114,279.073029 
	C314.471985,279.982697 321.921722,290.140137 321.126404,298.051422 
	C320.586548,303.421265 320.988647,308.656586 317.354767,313.411804 
	C313.697174,318.197998 309.155121,320.670319 303.378235,320.949310 
	C298.570435,321.181519 293.741852,320.983917 288.458618,320.904266 
z"/>
<path fill="#2297FF" opacity="1.000000" stroke="none" 
	d="
M202.993988,449.168549 
	C210.128448,449.635712 217.348785,447.502960 224.409225,450.763519 
	C235.420837,455.848816 237.590347,466.530853 235.480469,475.891785 
	C232.945724,487.137634 226.117874,491.993744 214.388199,491.998322 
	C210.898865,491.999695 207.409515,491.985321 203.458038,491.446899 
	C202.995270,476.999939 202.994629,463.084259 202.993988,449.168549 
z"/>
<path fill="#05BAFF" opacity="1.000000" stroke="none" 
	d="
M75.997307,64.833244 
	C70.053490,64.775169 63.900646,65.691864 58.206230,64.470764 
	C42.956974,61.200756 39.457294,42.643509 46.435150,31.079498 
	C50.209583,24.824341 56.170113,22.371002 63.136902,22.036037 
	C67.106255,21.845190 71.092972,22.015478 75.535202,22.553011 
	C75.998131,36.999664 75.997719,50.916454 75.997307,64.833244 
z"/>
<path fill="#2C8AFF" opacity="1.000000" stroke="none" 
	d="
M273.537445,107.094719 
	C274.001465,121.416527 274.001343,135.667313 274.001404,150.376175 
	C265.310272,150.882629 256.618988,150.930984 247.431549,150.497406 
	C246.957108,135.732224 246.978790,121.448967 247.000473,107.165710 
	C255.691422,107.118378 264.382385,107.071030 273.537445,107.094719 
z"/>
<path fill="#2297FF" opacity="1.000000" stroke="none" 
	d="
M193.462280,150.906982 
	C192.977188,136.550873 192.955719,122.267899 192.966431,107.575531 
	C201.689636,107.118553 210.380661,107.070961 219.535797,107.552620 
	C219.999725,122.332695 219.999542,136.583511 219.999344,150.834320 
	C211.308212,150.882919 202.617065,150.931519 193.462280,150.906982 
z"/>
<path fill="#2890FF" opacity="1.000000" stroke="none" 
	d="
M226.461609,235.906555 
	C226.331421,221.916794 226.665054,207.999786 226.998138,193.624725 
	C236.021927,193.119308 245.046249,193.071915 254.534729,193.553650 
	C254.998642,207.999634 254.998367,221.916489 254.998077,235.833344 
	C245.640518,235.881989 236.282974,235.930649 226.461609,235.906555 
z"/>
<path fill="#11ACFF" opacity="1.000000" stroke="none" 
	d="
M129.536377,22.093920 
	C130.000519,36.082989 130.000702,50.000683 130.000839,64.376511 
	C120.976082,64.883720 111.951363,64.932800 102.463394,64.449959 
	C102.000397,56.109161 102.127594,48.297573 101.960289,40.492290 
	C101.829254,34.379272 101.333458,28.274075 100.999733,22.165401 
	C110.357300,22.117781 119.714867,22.070162 129.536377,22.093920 
z"/>
<path fill="#2890FF" opacity="1.000000" stroke="none" 
	d="
M225.462112,64.906509 
	C224.998703,50.916531 224.999039,36.999329 224.998871,22.624046 
	C234.022644,22.118649 243.046906,22.071329 252.535370,22.553146 
	C252.999268,36.999416 252.998962,50.916546 252.998657,64.833679 
	C243.974396,64.882210 234.950119,64.930740 225.462112,64.906509 
z"/>
<path fill="#3B79FF" opacity="1.000000" stroke="none" 
	d="
M356.535431,193.095856 
	C356.999481,207.083588 356.999664,221.000519 356.999573,235.375458 
	C347.975616,235.881485 338.951874,235.929474 329.464294,235.447601 
	C329.000488,221.000610 329.000549,207.083496 329.000610,193.166382 
	C338.024261,193.119263 347.047882,193.072144 356.535431,193.095856 
z"/>
<path fill="#16A6FF" opacity="1.000000" stroke="none" 
	d="
M163.534393,107.095673 
	C163.665436,112.740654 163.048645,118.315239 163.065506,123.887909 
	C163.091858,132.605194 163.546906,141.321167 163.909180,150.435394 
	C154.973724,150.882004 145.949463,150.930939 136.461975,150.448334 
	C135.998474,135.666931 135.998154,121.417046 135.997833,107.167160 
	C145.022095,107.119583 154.046356,107.072006 163.534393,107.095673 
z"/>
<path fill="#1AA1FF" opacity="1.000000" stroke="none" 
	d="
M180.999100,320.834015 
	C177.508316,320.889191 173.973663,320.611359 170.535324,321.064484 
	C161.642670,322.236389 152.473053,315.342804 150.538177,305.907013 
	C148.320786,295.093353 150.354965,283.968170 162.083282,279.755371 
	C167.578812,277.781372 174.047485,278.516632 180.537323,278.553070 
	C180.999374,292.999390 180.999237,306.916718 180.999100,320.834015 
z"/>
<path fill="#377EFF" opacity="1.000000" stroke="none" 
	d="
M332.998505,64.833145 
	C324.307892,64.881340 315.617279,64.929543 306.463196,64.447540 
	C305.999512,50.000381 305.999298,36.083424 305.999084,22.166462 
	C314.689697,22.119236 323.380310,22.072008 332.535034,22.553818 
	C332.998962,36.999619 332.998718,50.916382 332.998505,64.833145 
z"/>
<path fill="#209AFF" opacity="1.000000" stroke="none" 
	d="
M181.462677,320.907227 
	C180.999237,306.916718 180.999374,292.999390 180.999023,278.624023 
	C189.689484,278.118408 198.380447,278.070923 207.535339,278.553223 
	C207.999100,292.999664 207.998947,306.916321 207.998779,320.832977 
	C199.307938,320.882141 190.617111,320.931274 181.462677,320.907227 
z"/>
<path fill="#3184FF" opacity="1.000000" stroke="none" 
	d="
M305.535217,22.095562 
	C305.999298,36.083424 305.999512,50.000381 305.999451,64.375374 
	C297.308319,64.881645 288.617554,64.929886 279.463318,64.447838 
	C278.999634,50.000420 278.999420,36.083298 278.999237,22.166178 
	C287.689941,22.119005 296.380615,22.071833 305.535217,22.095562 
z"/>
<path fill="#2692FF" opacity="1.000000" stroke="none" 
	d="
M220.463028,150.906860 
	C219.999542,136.583511 219.999725,122.332695 219.999619,107.623779 
	C228.690338,107.118484 237.381332,107.071281 246.536407,107.094894 
	C246.978790,121.448967 246.957108,135.732224 246.967896,150.424881 
	C238.309174,150.882675 229.617935,150.931046 220.463028,150.906860 
z"/>
<path fill="#1C9FFF" opacity="1.000000" stroke="none" 
	d="
M185.535889,363.094604 
	C186.333374,368.739899 186.951782,374.314667 186.934982,379.887512 
	C186.908646,388.605225 186.452560,397.321625 186.089188,406.436279 
	C177.975311,406.882721 169.950790,406.931427 161.462982,406.448822 
	C160.999451,391.667114 160.999222,377.416748 160.999008,363.166382 
	C169.023346,363.118683 177.047699,363.070953 185.535889,363.094604 
z"/>
<path fill="#505FFF" opacity="1.000000" stroke="none" 
	d="
M440.999939,107.166481 
	C445.095490,107.346382 449.199615,107.414009 453.285034,107.726456 
	C467.726227,108.830887 473.586060,124.522163 469.775940,136.490341 
	C466.664307,146.264374 459.918854,149.846878 449.892883,150.954315 
	C447.264435,151.244644 444.575104,150.983704 441.456848,150.446716 
	C440.999969,135.667160 440.999969,121.416817 440.999939,107.166481 
z"/>
<path fill="#2C8AFF" opacity="1.000000" stroke="none" 
	d="
M278.535400,22.095142 
	C278.999420,36.083298 278.999634,50.000420 278.999512,64.375587 
	C270.641541,64.881943 262.283875,64.930252 253.462433,64.906120 
	C252.998962,50.916546 252.999268,36.999416 252.999176,22.624222 
	C261.356354,22.118809 269.713959,22.071459 278.535400,22.095142 
z"/>
<path fill="#1C9FFF" opacity="1.000000" stroke="none" 
	d="
M202.530670,449.097351 
	C202.994629,463.084259 202.995270,476.999939 202.994934,491.373566 
	C194.638138,491.880188 186.282318,491.928894 177.462936,491.447021 
	C176.999268,477.000153 176.999161,463.083954 176.999054,449.167725 
	C185.355148,449.120544 193.711243,449.073364 202.530670,449.097351 
z"/>
<path fill="#2890FF" opacity="1.000000" stroke="none" 
	d="
M257.533936,278.096130 
	C257.997925,292.083740 257.998199,306.000214 257.998108,320.374664 
	C249.639725,320.881073 241.281769,320.929535 232.460602,320.447083 
	C231.996964,306.000092 231.996536,292.083954 231.996109,278.167847 
	C240.354156,278.120239 248.712204,278.072601 257.533936,278.096130 
z"/>
<path fill="#377EFF" opacity="1.000000" stroke="none" 
	d="
M328.536621,193.095367 
	C329.000549,207.083496 329.000488,221.000610 329.000549,235.375778 
	C320.643066,235.881958 312.285431,235.930084 303.464294,235.448090 
	C303.000641,221.000702 303.000549,207.083435 303.000427,193.166168 
	C311.357819,193.118896 319.715240,193.071625 328.536621,193.095367 
z"/>
<path fill="#0BB3FF" opacity="1.000000" stroke="none" 
	d="
M100.535812,22.094131 
	C101.333458,28.274075 101.829254,34.379272 101.960289,40.492290 
	C102.127594,48.297573 102.000397,56.109161 101.999855,64.376152 
	C93.641281,64.883209 85.282990,64.932137 76.460999,64.907150 
	C75.997719,50.916454 75.998131,36.999664 75.997955,22.624813 
	C84.022202,22.118790 92.047050,22.070826 100.535812,22.094131 
z"/>
<path fill="#4B65FF" opacity="1.000000" stroke="none" 
	d="
M440.536011,107.095566 
	C440.999969,121.416817 440.999969,135.667160 440.999939,150.375519 
	C432.975830,150.881042 424.951782,150.928558 416.463867,150.446655 
	C416.000031,135.667084 416.000061,121.416924 416.000092,107.166763 
	C424.024109,107.119385 432.048096,107.072014 440.536011,107.095566 
z"/>
<path fill="#16A6FF" opacity="1.000000" stroke="none" 
	d="
M160.535187,363.095154 
	C160.999222,377.416748 160.999451,391.667114 160.999329,406.375549 
	C152.974380,406.882385 144.949783,406.931122 136.461975,406.448334 
	C135.998459,391.666931 135.998138,377.417023 135.997818,363.167145 
	C144.022324,363.119385 152.046844,363.071625 160.535187,363.095154 
z"/>
<path fill="#11ACFF" opacity="1.000000" stroke="none" 
	d="
M135.543121,363.095703 
	C135.998138,377.417023 135.998459,391.666931 135.998291,406.374817 
	C127.561241,407.298615 119.387451,407.171448 112.842270,400.416016 
	C105.935783,393.287689 105.691940,384.631226 108.475044,376.355194 
	C110.710770,369.706848 115.758629,364.395020 123.890076,363.940491 
	C127.628258,363.731537 131.355972,363.335480 135.543121,363.095703 
z"/>
<path fill="#11ACFF" opacity="1.000000" stroke="none" 
	d="
M135.543152,107.095718 
	C135.998154,121.417046 135.998474,135.666931 135.998291,150.374817 
	C127.561256,151.298523 119.387444,151.171448 112.842262,144.416000 
	C105.935814,137.287674 105.691895,128.631195 108.475044,120.355179 
	C110.710808,113.706886 115.758606,108.394997 123.890083,107.940514 
	C127.628273,107.731583 131.355988,107.335495 135.543152,107.095718 
z"/>
<path fill="#3B79FF" opacity="1.000000" stroke="none" 
	d="
M333.462402,64.905067 
	C332.998718,50.916382 332.998962,36.999619 332.998840,22.624847 
	C341.022583,22.119568 349.046631,22.072296 357.534851,22.553886 
	C357.998779,36.999565 357.998535,50.916382 357.998322,64.833206 
	C349.974304,64.881134 341.950287,64.929062 333.462402,64.905067 
z"/>
<path fill="#4072FF" opacity="1.000000" stroke="none" 
	d="
M369.461761,150.904160 
	C368.998047,136.582794 368.998322,122.333130 368.998169,107.625511 
	C376.688080,107.120216 384.378418,107.072876 392.533142,107.554306 
	C392.997009,122.333015 392.996521,136.582962 392.996033,150.832916 
	C385.305939,150.880554 377.615845,150.928207 369.461761,150.904160 
z"/>
<path fill="#2297FF" opacity="1.000000" stroke="none" 
	d="
M231.532593,278.096710 
	C231.996536,292.083954 231.996964,306.000092 231.996735,320.374176 
	C224.306183,320.880676 216.616287,320.929230 208.462585,320.905396 
	C207.998947,306.916321 207.999100,292.999664 207.999054,278.625000 
	C215.688904,278.119843 223.378998,278.072723 231.532593,278.096710 
z"/>
<path fill="#2C8AFF" opacity="1.000000" stroke="none" 
	d="
M255.461899,235.905792 
	C254.998367,221.916489 254.998642,207.999634 254.998474,193.624756 
	C262.688965,193.119263 270.379883,193.071793 278.535095,193.553391 
	C278.999054,207.999573 278.998718,221.916702 278.998383,235.833817 
	C271.307495,235.881958 263.616608,235.930115 255.461899,235.905792 
z"/>
<path fill="#3184FF" opacity="1.000000" stroke="none" 
	d="
M279.462219,235.906021 
	C278.998718,221.916702 278.999054,207.999573 278.998871,193.624420 
	C286.689697,193.119049 294.381042,193.071732 302.536407,193.095291 
	C303.000549,207.083435 303.000641,221.000702 303.000580,235.376038 
	C295.308960,235.882141 287.617523,235.930176 279.462219,235.906021 
z"/>
<path fill="#476AFF" opacity="1.000000" stroke="none" 
	d="
M393.460144,150.904678 
	C392.996521,136.582962 392.997009,122.333015 392.996765,107.625076 
	C400.354797,107.119644 407.713531,107.072189 415.536194,107.095749 
	C416.000061,121.416924 416.000031,135.667084 416.000000,150.375244 
	C408.641449,150.880981 401.282867,150.928711 393.460144,150.904678 
z"/>
<path fill="#4072FF" opacity="1.000000" stroke="none" 
	d="
M358.457123,64.904999 
	C357.998535,50.916382 357.998779,36.999565 357.998627,22.624737 
	C365.825897,21.563005 373.201080,21.841080 379.522980,27.851017 
	C386.102844,34.106232 386.371552,46.473324 383.611786,53.668827 
	C380.921204,60.683910 373.622284,65.847206 364.395325,65.022873 
	C362.581970,64.860878 360.743042,64.984764 358.457123,64.904999 
z"/>
<path fill="#1AA1FF" opacity="1.000000" stroke="none" 
	d="
M176.540497,449.095734 
	C176.999161,463.083954 176.999268,477.000153 176.999207,491.374359 
	C169.191696,492.322174 161.488297,492.400665 155.538284,486.039215 
	C148.680344,478.707031 148.576721,470.020203 151.422241,461.270844 
	C153.558975,454.700867 161.339340,447.743195 170.595963,448.967316 
	C172.395615,449.205353 174.251816,449.015991 176.540497,449.095734 
z"/>
</svg>
